# xmcd
#
# Track frame offsets: 
#        150
#        12059
#        33450
#        45451
#        60447
#        72064
#        91489
#        104603
#        119404
#        135968
#        152343
#        169310
#        184511
#        201261
#
# Disc length: 2850 seconds
#
# Revision: 0
# Processed by: cddbd v1.5.2PL0 Copyright (c) Steve Scherf et al.
# Submitted via: ExactAudioCopyFreeDBPlugin 1.0
#
DISCID=af0b200e
DTITLE=Whiskeydick - First Class White Trash
DYEAR=2009
DGENRE=Heavy Metal
TTITLE0=Barn Burner
TTITLE1=Murder Down in Texas
TTITLE2=Front Yard BBQ
TTITLE3=Devil's Eyes
TTITLE4=Hate and Whiskey
TTITLE5=6 Feet in the Ground
TTITLE6=First Class White Trash
TTITLE7=Drinkin' Whiskey Free
TTITLE8=Soldier Story II
TTITLE9=My Prison State of Mind
TTITLE10=Damned Ol' Train
TTITLE11=Come on Mother Fucker
TTITLE12=Me and the Devil
TTITLE13=Fare Thee Long
EXTD=
EXTT0=
EXTT1=
EXTT2=
EXTT3=
EXTT4=
EXTT5=
EXTT6=
EXTT7=
EXTT8=
EXTT9=
EXTT10=
EXTT11=
EXTT12=
EXTT13=
PLAYORDER=
